<?xml version="1.0" encoding="UTF-8"?>
<svg width="469px" height="25px" viewBox="0 0 469 25" version="1.1" xmlns="http://www.w3.org/2000/svg" xmlns:xlink="http://www.w3.org/1999/xlink">
    <!-- Generator: Sketch 52.3 (67297) - http://www.bohemiancoding.com/sketch -->
    <title>Group 6</title>
    <desc>Created with Sketch.</desc>
    <g id="Page-1" stroke="none" stroke-width="1" fill="none" fill-rule="evenodd" opacity="0.2">
        <g id="Desktop-HD" transform="translate(-94.000000, -447.000000)" fill="#4A4A4A" fill-rule="nonzero">
            <g id="Group-6" transform="translate(94.000000, 447.000000)">
                <g id="photo-camera" transform="translate(0.000000, 2.000000)">
                    <path d="M30.2032546,1.5057676 L29.3015012,1.5057676 L29.3015012,0.525707908 C29.3015012,0.235807683 29.0561668,0 28.754718,0 L24.480581,0 C24.1792651,0 23.9340637,0.235871622 23.9340637,0.525707908 L23.9340637,1.5057676 L19.7137141,1.5057676 L19.7137141,0.525707908 C19.7137141,0.235807683 19.4684462,0 19.1671969,0 L12.7918939,0 C12.4904451,0 12.2452437,0.235871622 12.2452437,0.525707908 L12.2452437,1.5057676 L6.20283755,1.5057676 L6.20283755,0.598023117 C6.20283755,0.411320722 6.04539804,0.259912752 5.8512581,0.259912752 C5.65711816,0.259912752 5.49967865,0.411320722 5.49967865,0.598023117 L5.49967865,1.5057676 L2.79667891,1.5057676 C1.25452963,1.5057676 0,2.71223592 0,4.19530512 L0,19.3103985 C0,20.7934677 1.25452963,22 2.79667891,22 L30.2032546,22 C31.7454039,22 33,20.7934038 33,19.3103985 L33,4.19530512 C33,2.71223592 31.7454039,1.5057676 30.2032546,1.5057676 Z M24.6371562,0.67615679 L28.5983423,0.67615679 L28.5983423,1.50570367 L24.6371562,1.50570367 L24.6371562,0.67615679 Z M12.9483361,0.67615679 L19.0105552,0.67615679 L19.0105552,1.50570367 L12.9483361,1.50570367 L12.9483361,0.67615679 Z M1.05460538,6.60881721 C1.10028146,6.58420063 1.15021266,6.56642554 1.20626059,6.56642554 L5.83543437,6.56642554 C6.01016031,6.56642554 6.15224149,6.70306356 6.15224149,6.87109571 L6.15224149,17.6548854 C6.15224149,17.8229175 6.01016031,17.9595556 5.83543437,17.9595556 L1.2061941,17.9595556 C1.15021266,17.9595556 1.10028146,17.9417805 1.0545389,17.9171639 L1.0545389,6.60881721 L1.05460538,6.60881721 Z M31.9454611,19.3103985 C31.9454611,20.2341918 31.1638484,20.9858607 30.2032546,20.9858607 L2.79667891,20.9858607 C1.83608513,20.9858607 1.05460538,20.2341918 1.05460538,19.3103985 L1.05460538,18.6209424 C1.10447009,18.6281675 1.1543348,18.6357124 1.20626059,18.6357124 L5.83543437,18.6357124 C6.39784182,18.6357124 6.8554004,18.1956829 6.8554004,17.6548214 L6.8554004,6.87103177 C6.8554004,6.33017028 6.39784182,5.89014087 5.83543437,5.89014087 L1.2061941,5.89014087 C1.15426832,5.89014087 1.10440361,5.89762175 1.0545389,5.90491082 L1.0545389,4.19524118 C1.0545389,3.27144796 1.83601864,2.51990688 2.79661242,2.51990688 L30.2031881,2.51990688 C31.1637819,2.51990688 31.9453946,3.27144796 31.9453946,4.19524118 L31.9453946,19.3103985 L31.9454611,19.3103985 Z" id="Shape"></path>
                    <path d="M30.6857312,3.4137931 L25.4927071,3.4137931 C25.0831696,3.4137931 24.75,3.74548933 24.75,4.15326693 L24.75,6.84679934 C24.75,7.2544444 25.0831696,7.5862069 25.4927071,7.5862069 L30.6857312,7.5862069 C31.0952687,7.5862069 31.4285714,7.25451067 31.4285714,6.84679934 L31.4285714,4.15326693 C31.4285714,3.74548933 31.0952687,3.4137931 30.6857312,3.4137931 Z M30.7244145,6.84679934 C30.7244145,6.86734397 30.7063712,6.88530394 30.6857312,6.88530394 L25.4927071,6.88530394 C25.4720671,6.88530394 25.4541569,6.86734397 25.4541569,6.84679934 L25.4541569,4.15326693 C25.4541569,4.13265603 25.4721337,4.11462979 25.4927071,4.11462979 L30.6857312,4.11462979 C30.7063712,4.11462979 30.7244145,4.13258976 30.7244145,4.15326693 L30.7244145,6.84679934 Z" id="Shape"></path>
                    <path d="M11,4.74137931 C11,4.00941533 10.3832104,3.4137931 9.6250676,3.4137931 C8.86692478,3.4137931 8.25,4.00941533 8.25,4.74137931 C8.25,5.47334329 8.86692478,6.06896552 9.6250676,6.06896552 C10.3832104,6.06890025 11,5.47334329 11,4.74137931 Z M9.6250676,5.37870684 C9.26110497,5.37870684 8.96494592,5.09277423 8.96494592,4.74137931 C8.96494592,4.38998439 9.26110497,4.10405178 9.6250676,4.10405178 C9.98903024,4.10405178 10.2850541,4.38998439 10.2850541,4.74137931 C10.2850541,5.09277423 9.98909784,5.37870684 9.6250676,5.37870684 Z" id="Shape"></path>
                    <path d="M17.6786391,5.31034483 C13.5627845,5.31034483 10.2142857,8.45829828 10.2142857,12.3276498 C10.2142857,16.1968741 13.5627845,19.3448276 17.6786391,19.3448276 C21.7943584,19.3448276 25.1428571,16.1968741 25.1428571,12.3276498 C25.1428571,8.45829828 21.7943584,5.31034483 17.6786391,5.31034483 Z M17.6786391,18.6723282 C13.9571831,18.6723282 10.9296278,15.8260965 10.9296278,12.3276498 C10.9296278,8.8290759 13.9571831,5.98284424 17.6786391,5.98284424 C21.3999598,5.98284424 24.4275151,8.8290759 24.4275151,12.3276498 C24.4275151,15.8260965 21.3999598,18.6723282 17.6786391,18.6723282 Z" id="Shape"></path>
                    <path d="M17.6786723,6.44827586 C14.3209304,6.44827586 11.5892857,9.08574048 11.5892857,12.3275862 C11.5892857,15.5694319 14.3209304,18.2068966 17.6786723,18.2068966 C21.0362797,18.2068966 23.7678571,15.5694319 23.7678571,12.3275862 C23.7678571,9.08574048 21.0362797,6.44827586 17.6786723,6.44827586 Z M17.6786723,17.5203949 C14.7129807,17.5203949 12.3003013,15.1909634 12.3003013,12.3275862 C12.3003013,9.46420899 14.7129135,7.1347775 17.6786723,7.1347775 C20.6441621,7.1347775 23.0567743,9.46420899 23.0567743,12.3275862 C23.0567743,15.1909634 20.6441621,17.5203949 17.6786723,17.5203949 Z" id="Shape"></path>
                </g>
                <g id="headphones" transform="translate(63.000000, 3.000000)">
                    <path d="M24,11.1397242 C24,4.99728772 18.6169936,0 12.0003198,0 C5.38335526,5.39757163e-05 0,4.99728772 0,11.1397242 C0,12.2000232 0.160415137,13.2470981 0.476128873,14.2545549 C-0.166578242,15.7640398 0.167799234,17.5519314 1.48071486,18.770757 C2.33459551,19.5634444 3.47000211,20 4.67785425,20 C5.79971365,20 6.85872101,19.6228717 7.68806553,18.9340336 C7.79278016,18.9590243 7.90115776,18.9732739 8.01209364,18.9732739 C8.35746005,18.9732739 8.68224401,18.8484281 8.92655876,18.6216221 L9.60397695,17.9927511 C10.1081886,17.5246736 10.1081886,16.7630763 9.60397695,16.2949449 L4.14765286,11.2295938 C3.90339625,11.0028418 3.57867043,10.877996 3.23318773,10.877996 C2.88770504,10.877996 2.56303736,11.0028418 2.31872261,11.2296478 L1.64136257,11.8585189 C1.39704781,12.0852708 1.26250609,12.3867792 1.26250609,12.7074489 C1.26250609,12.8104346 1.2778557,12.9110453 1.30477568,13.0082556 C1.2333767,13.0824182 1.16616398,13.1587939 1.10145138,13.2364109 C0.949118051,12.5501637 0.872137391,11.8482095 0.872137391,11.1397242 C0.872137391,7.89448827 2.4930338,4.99458893 5.02223224,3.09939358 L5.1777634,3.32506605 C5.45242854,3.72275913 5.92309202,3.94163066 6.4018373,3.94157668 C6.65871084,3.94157668 6.91791007,3.87853305 7.15024747,3.74629254 C8.60898447,2.91846698 10.2861047,2.48093983 12.0003779,2.48093983 C13.7142442,2.48093983 15.3910737,2.91846698 16.8499851,3.74640049 C17.5169958,4.12444641 18.4017501,3.93520755 18.8225855,3.32468822 L18.977884,3.09923166 C21.5070243,4.99442701 23.1278626,7.89443429 23.1278626,11.1396703 C23.1278626,11.8478317 23.0509401,12.549516 22.898723,13.2354934 C22.8338942,13.1579842 22.766507,13.0819324 22.6953987,13.0082016 C22.7223187,12.9109913 22.7376683,12.8103806 22.7376683,12.707341 C22.7376683,12.3866712 22.6031848,12.0851629 22.35887,11.8584109 L21.6814518,11.2294859 C21.1772983,10.7615164 20.3569077,10.7614084 19.8525216,11.2294859 L14.3961393,16.294837 C13.8919276,16.7629683 13.8919276,17.5245657 14.3961393,17.9926431 L15.0735575,18.6215142 C15.3178141,18.8482662 15.6425981,18.973166 15.9880226,18.973166 C16.0990167,18.973166 16.2073943,18.9589164 16.3120508,18.9339256 C17.1413953,19.6227097 18.2004026,19.999892 19.322262,19.999892 C20.5301142,19.999892 21.6655789,19.5633365 22.5194014,18.7706491 C23.3733984,17.9777998 23.843713,16.923708 23.8436548,15.8024705 C23.8436548,15.2623895 23.7334167,14.7382852 23.5248595,14.2511004 C23.8399919,13.2447772 24,12.1988357 24,11.1397242 Z M2.09749042,18.1982366 C0.778993117,16.9742833 0.683232432,15.0395777 1.80817338,13.7112353 L6.93105027,18.4669817 C6.29090143,18.9354369 5.50574521,19.1903643 4.67791239,19.1903643 C3.70297908,19.1903643 2.78665339,18.8380108 2.09749042,18.1982366 Z M2.25807999,12.4309853 L2.93549817,11.8021142 C3.01497896,11.7282754 3.12074015,11.6876317 3.23318773,11.6876317 C3.34563532,11.6876317 3.45145465,11.7282754 3.53093544,11.8021142 L8.98731767,16.8674653 C9.15151207,17.0198928 9.15151207,17.2678572 8.98731767,17.4202846 L8.30989949,18.0491557 C8.2304187,18.1229945 8.12459936,18.1636382 8.01220992,18.1636382 C7.8997042,18.1636382 7.79394301,18.1229945 7.71446222,18.0491557 L2.25802185,12.9838046 C2.17848292,12.9099658 2.13470162,12.811784 2.13470162,12.7073949 C2.13470162,12.6030059 2.17848292,12.5048241 2.25807999,12.4309853 Z M18.0878388,2.88845648 C17.9209117,3.13080745 17.5694403,3.20567177 17.3047175,3.05561928 C15.7089968,2.15006868 13.8747756,1.67135806 12.0003779,1.67135806 C10.1255151,1.67135806 8.29106132,2.15001471 6.69487547,3.05583518 C6.43085041,3.2060496 6.07955347,3.13075347 5.91221937,2.88840251 L5.7234307,2.61447575 C7.51142863,1.47650572 9.67345723,0.809635745 12.0003779,0.809635745 C14.3270079,0.809635745 16.4888039,1.47645174 18.2766856,2.6143678 L18.0878388,2.88845648 Z M15.6903331,18.0491557 L15.0129149,17.4202846 C14.8487205,17.2678572 14.8487205,17.0198928 15.0129149,16.8674653 L20.469239,11.8021682 C20.5513362,11.7259545 20.6592487,11.6878476 20.7670448,11.6878476 C20.874841,11.6878476 20.9827535,11.7259545 21.0647925,11.8021682 L21.7422107,12.4310933 C21.8217497,12.504932 21.8655309,12.6030599 21.8655309,12.7075029 C21.8655309,12.8118919 21.8217497,12.9100738 21.7421526,12.9839125 L16.2857704,18.0492636 C16.2062896,18.1231024 16.1004702,18.1637461 15.9880226,18.1637461 C15.8756332,18.1636382 15.769872,18.1229945 15.6903331,18.0491557 Z M21.9027421,18.1982366 C21.2135792,18.8380108 20.2972535,19.1903103 19.3223202,19.1903103 C18.4944292,19.1903103 17.7093311,18.935383 17.0691823,18.4669277 L22.1922336,13.7109654 C22.6969105,14.305292 22.9715756,15.0341261 22.9716337,15.8025244 C22.9716919,16.7075353 22.5920795,17.5583545 21.9027421,18.1982366 Z" id="Shape"></path>
                </g>
                <g id="bowling" transform="translate(399.000000, 1.000000)">
                    <path d="M2.47654926,12.2943784 C2.47654926,12.0760512 2.29886651,11.899049 2.07958155,11.899049 L1.63635386,11.899049 C1.10642842,11.0647458 0.793935433,9.7986374 0.793935433,8.45984111 C0.793935433,7.02801063 1.15110052,5.67993728 1.74941026,4.85375148 C2.10313496,4.36538786 2.08847362,3.69506728 1.71394781,3.22362375 C1.50154362,2.95638106 1.38933408,2.63458291 1.38933408,2.29296557 C1.38933408,1.87159711 1.55992434,1.48122247 1.86966502,1.19373891 C2.17914105,0.906518904 2.58399519,0.764674705 3.0081155,0.794719742 C3.74827504,0.846745095 4.34748458,1.44163682 4.40189562,2.17853088 C4.43000093,2.55983929 4.31477444,2.93287214 4.07733481,3.22889481 C3.86794757,3.49002308 3.7664297,3.81972782 3.79146513,4.15728645 C3.80760848,4.3750339 3.99730612,4.53896383 4.21659109,4.52241271 C4.43524091,4.50633598 4.59937382,4.31678869 4.58323047,4.09904124 C4.57301517,3.96088679 4.61366466,3.82710731 4.69771596,3.72226594 C5.06043859,3.27000907 5.2365864,2.70115638 5.19366096,2.12049652 C5.11056238,0.99449288 4.19504897,0.0854460353 3.06406148,0.00590575416 C2.41726875,-0.0393726431 1.80080435,0.176846199 1.32841277,0.615240181 C0.862584384,1.04767787 0.595398646,1.65917343 0.595398646,2.29301828 C0.595398646,2.81453686 0.7668887,3.3059577 1.09129072,3.71425393 C1.24669035,3.90981022 1.25251254,4.18822756 1.1054757,4.39126876 C0.402948697,5.36140718 0,6.84436693 0,8.45984111 C0,10.0731542 0.402154762,11.5549543 1.10325268,12.5252508 C1.17782968,12.6284582 1.29776686,12.6896552 1.42548461,12.6896552 L2.07958155,12.6896552 C2.29886651,12.6897079 2.47654926,12.5127057 2.47654926,12.2943784 Z" id="Shape"></path>
                    <path d="M14.8945323,4.39121094 C14.7474965,4.18811691 14.7532657,3.9097521 14.9087171,3.71419569 C15.2331168,3.30595192 15.4045527,2.81447807 15.4045527,2.29295916 C15.4045527,1.65911392 15.1373689,1.04761798 14.6715439,0.61528545 C14.1991557,0.176943909 13.5831721,-0.0395386204 12.9359076,0.00595064738 C11.8049283,0.085438267 10.8894215,0.994538384 10.8063235,2.12054271 C10.7634513,2.70120294 10.9396507,3.27000327 11.3022649,3.72226042 C11.3863685,3.82710185 11.4270177,3.96088141 11.4168025,4.09903595 C11.4006063,4.31678354 11.564791,4.50633094 11.7834393,4.52240768 C12.0026697,4.53911694 12.1924718,4.37502877 12.2085622,4.15728119 C12.2335974,3.81966965 12.1320803,3.4899647 11.9226416,3.22888899 C11.6852566,2.93281342 11.569978,2.55978034 11.5980831,2.1785244 C11.6524938,1.44162989 12.251699,0.846685086 12.9918532,0.794712411 C13.4167644,0.764667356 13.8208217,0.906564354 14.1302955,1.19373183 C14.4400869,1.48121557 14.610623,1.87159044 14.610623,2.29295916 C14.610623,2.63457671 14.4984143,2.95637506 14.2861174,3.22356521 C13.9114885,3.69495632 13.8968802,4.36527731 14.2506023,4.85369394 C14.8489078,5.67988025 15.2060703,7.02795444 15.2060703,8.4597858 C15.2060703,9.7984775 14.8935795,11.0646394 14.363605,11.8989958 L13.7948337,11.8989958 C13.5755503,11.8989958 13.3978689,12.0759981 13.3978689,12.2943255 C13.3978689,12.5126529 13.5755503,12.6896552 13.7948337,12.6896552 L14.5744727,12.6896552 C14.7021896,12.6896552 14.8221259,12.6284581 14.8967023,12.5252507 C15.5978481,11.5548482 16,10.0730998 16,8.45983851 C16,6.84431062 15.5970542,5.36140266 14.8945323,4.39121094 Z" id="Shape"></path>
                    <path d="M6.23739008,4.29234561 C6.20599509,4.51660146 6.36407356,4.72358584 6.59040442,4.75468542 C6.60971593,4.75736359 6.62880673,4.75862069 6.64778719,4.75862069 C6.85110977,4.75862069 7.0283894,4.61006417 7.05713596,4.40493811 C7.10999431,4.02758925 7.0038362,3.64034755 6.76602878,3.34257863 C6.54466374,3.06552455 6.42769118,2.73184627 6.42769118,2.37756248 C6.42769118,1.94058331 6.60552257,1.53579686 6.92841097,1.23775466 C7.25102349,0.939985737 7.67306267,0.792904944 8.11513065,0.824004525 C8.88670812,0.877950546 9.5113526,1.49480444 9.56807326,2.25890309 C9.59737157,2.65428862 9.477254,3.04109307 9.22973566,3.34804429 C8.99231447,3.64253381 8.88753575,4.02835444 8.94215973,4.40663247 C8.97460306,4.630779 9.1839398,4.78660485 9.41043618,4.75435748 C9.63671187,4.72227408 9.79379718,4.51457917 9.7614642,4.29048729 C9.73900768,4.13515335 9.78094124,3.97812507 9.87639526,3.85968431 C10.2545146,3.39073106 10.4381394,2.8008775 10.3933919,2.19878088 C10.306766,1.03120753 9.35239131,0.0886005618 8.17339623,0.00612381852 C7.49909359,-0.0408261632 6.85657216,0.18337503 6.36412874,0.637898951 C5.8785271,1.08619202 5.6,1.72026273 5.6,2.37750782 C5.6,2.91827979 5.7787142,3.42789752 6.11688628,3.85121254 C6.21548531,3.97462705 6.2594052,4.13531732 6.23739008,4.29234561 Z" id="Shape"></path>
                    <path d="M2.87450209,7.11732533 C2.87450209,7.65386503 3.05049728,8.15944323 3.38342151,8.57934858 C3.54290357,8.78051708 3.54887872,9.06687041 3.39797914,9.27579284 C2.93115733,9.92186364 2.58834695,10.7997933 2.40643093,11.8146911 C2.36683201,12.0358138 2.51420083,12.2470679 2.73577008,12.2866509 C2.75999658,12.2909887 2.78416876,12.2931034 2.8079607,12.2931034 C3.00150109,12.2931034 3.17325936,12.154834 3.20851271,11.9579491 C3.36669111,11.0751393 3.66870754,10.2915582 4.05883021,9.75154821 C4.42179313,9.24911497 4.40680095,8.55961129 4.02238183,8.07463796 C3.80445198,7.79977998 3.68929464,7.46874664 3.68929464,7.11732533 C3.68929464,6.68386415 3.86436639,6.28228627 4.18224413,5.98655231 C4.49985026,5.69108946 4.91506854,5.54533719 5.35060232,5.57608181 C6.11020625,5.62960023 6.72515734,6.24156456 6.78099779,6.99960651 C6.80984145,7.39185797 6.69158789,7.77559638 6.4479106,8.08011452 C6.06436059,8.55944862 6.05121527,9.24683759 6.41586209,9.75165666 C6.50342513,9.87289999 6.587729,10.0080245 6.66643796,10.1532345 C6.77355602,10.3507701 7.02070976,10.4242427 7.21859571,10.3174227 C7.41653598,10.2105486 7.4901389,9.96377827 7.38307516,9.76618851 C7.28774444,9.59034229 7.18470034,9.42539497 7.07671317,9.27590129 C6.92505311,9.06594861 6.92825797,8.78295713 7.08453518,8.58764475 C7.45673241,8.1224087 7.63750772,7.53728491 7.59350892,6.93996086 C7.5082273,5.7816424 6.56866285,4.8465071 5.40796371,4.76468412 C4.74347323,4.71816052 4.11152013,4.94053033 3.62671857,5.39150565 C3.14870694,5.83624528 2.87450209,6.46528996 2.87450209,7.11732533 Z" id="Shape"></path>
                    <path d="M8.00650413,6.94003838 C7.9624511,7.53736587 8.14328033,8.12249305 8.51547675,8.58773178 C8.6716993,8.78304529 8.67495847,9.06609263 8.52324443,9.27604652 C8.41504021,9.42592063 8.31194202,9.59086891 8.2168831,9.7663908 C8.10987391,9.9639817 8.18358532,10.2107534 8.38152515,10.317574 C8.57941067,10.4243403 8.82667251,10.3507588 8.93362737,10.1532222 C9.01206456,10.0083909 9.09636825,9.87326557 9.18409405,9.75175042 C9.5487944,9.24692843 9.53564911,8.55958972 9.15209994,8.08014439 C8.90842318,7.77562449 8.79016988,7.39188387 8.81901347,6.99968437 C8.8748538,6.24163804 9.48980355,5.62961594 10.2494058,5.57615144 C10.6854275,5.54535242 11.100156,5.69121398 11.4177614,5.98662431 C11.7356928,6.28235998 11.9107099,6.68394018 11.9107099,7.11740386 C11.9107099,7.46877298 11.7955528,7.79986246 11.5776234,8.07472203 C11.1931508,8.55969816 11.1781586,9.24926005 11.5411751,9.75164197 C11.9312969,10.2916009 12.2332584,11.0751865 12.3914907,11.9580014 C12.426744,12.1548332 12.5985019,12.2931034 12.7920419,12.2931034 C12.8158338,12.2931034 12.8400059,12.2909887 12.8642866,12.2866508 C13.0857468,12.2470676 13.2331696,12.0358123 13.1935708,11.8146884 C13.0116008,10.7997847 12.6687912,9.92184994 12.2020247,9.27582963 C12.0511255,9.06696021 12.0570463,8.780551 12.2165823,8.57938134 C12.5495058,8.15936511 12.7255006,7.653784 12.7255006,7.11734964 C12.7255006,6.46531051 12.4512964,5.83626219 11.9732315,5.39151999 C11.4884853,4.94059629 10.856262,4.71811674 10.1919902,4.76469484 C9.03134795,4.84657252 8.09178556,5.78176744 8.00650413,6.94003838 Z" id="Shape"></path>
                    <path d="M8,10.3103448 C4.47104676,10.3103448 1.6,13.1566412 1.6,16.6551724 C1.6,20.1537036 4.47104676,23 8,23 C11.5289532,23 14.4,20.1537036 14.4,16.6551724 C14.4,13.1566412 11.5290074,10.3103448 8,10.3103448 Z M8,22.1950904 C4.91870898,22.1950904 2.41196292,19.7099006 2.41196292,16.6552261 C2.41196292,13.6005516 4.91876311,11.1153617 8,11.1153617 C11.0812369,11.1153617 13.5880371,13.6005516 13.5880371,16.6552261 C13.5880371,19.7099006 11.081291,22.1950904 8,22.1950904 Z" id="Shape"></path>
                    <path d="M10,12.6896552 C9.33834667,12.6896552 8.8,13.223308 8.8,13.8793103 C8.8,14.5353126 9.33834667,15.0689655 10,15.0689655 C10.6616533,15.0689655 11.2,14.5353126 11.2,13.8793103 C11.2,13.2233609 10.6617067,12.6896552 10,12.6896552 Z M10,14.2758621 C9.77941333,14.2758621 9.6,14.0979954 9.6,13.8793103 C9.6,13.6606253 9.77941333,13.4827586 10,13.4827586 C10.2205867,13.4827586 10.4,13.6606253 10.4,13.8793103 C10.4,14.0979954 10.2205867,14.2758621 10,14.2758621 Z" id="Shape"></path>
                    <path d="M10,15.4655172 C9.33834667,15.4655172 8.8,15.9991701 8.8,16.6551724 C8.8,17.3111747 9.33834667,17.8448276 10,17.8448276 C10.6616533,17.8448276 11.2,17.3111747 11.2,16.6551724 C11.2,15.9991701 10.6617067,15.4655172 10,15.4655172 Z M10,17.0517241 C9.77941333,17.0517241 9.6,16.8738575 9.6,16.6551724 C9.6,16.4364874 9.77941333,16.2586207 10,16.2586207 C10.2205867,16.2586207 10.4,16.4364874 10.4,16.6551724 C10.4,16.8738575 10.2205867,17.0517241 10,17.0517241 Z" id="Shape"></path>
                    <path d="M7.2,14.2758621 C6.53834667,14.2758621 6,14.8095149 6,15.4655172 C6,16.1215195 6.53834667,16.6551724 7.2,16.6551724 C7.86165333,16.6551724 8.4,16.1215195 8.4,15.4655172 C8.4,14.8095149 7.86170667,14.2758621 7.2,14.2758621 Z M7.2,15.862069 C6.97941333,15.862069 6.8,15.6842023 6.8,15.4655172 C6.8,15.2468322 6.97941333,15.0689655 7.2,15.0689655 C7.42058667,15.0689655 7.6,15.2468322 7.6,15.4655172 C7.6,15.6842023 7.42058667,15.862069 7.2,15.862069 Z" id="Shape"></path>
                </g>
                <g id="karaoke" transform="translate(115.000000, 1.000000)">
                    <path d="M27.6920545,14.2080236 C27.1949784,13.0279016 26.1539346,12.2644902 24.8358208,12.1134877 C22.6975377,11.8684537 20.335837,13.2324099 18.3570846,15.8555428 C13.9193748,21.7385328 9.6931116,22.1374473 8.50295736,22.1183591 C7.47084529,22.1026186 6.80022054,21.7992627 6.593488,21.5055978 C6.0495823,20.733024 7.18354101,19.3360011 7.89466871,18.6293257 C8.40669306,18.9851302 9.0223628,19.1775395 9.66941768,19.1775395 C10.4729641,19.1775395 11.2283783,18.8812315 11.7965362,18.3431786 L18.3998825,12.0904644 C18.5726869,12.1080843 18.747352,12.1178927 18.9236298,12.1178927 C20.2075673,12.1178927 21.4147166,11.6443873 22.3227148,10.7846538 C23.2306509,9.92492025 23.7306422,8.78185878 23.7306422,7.56602713 C23.7306422,6.35019548 23.2305888,5.20713401 22.3227148,4.34740049 C20.4483521,2.5726657 17.3987834,2.57278316 15.5245448,4.34740049 C14.6166087,5.20713401 14.1166174,6.35019548 14.1166174,7.56602713 C14.1166174,7.73294629 14.1269758,7.8983384 14.1455835,8.06196851 L7.5422992,14.3148589 C6.97407932,14.8528531 6.66115833,15.5681622 6.66115833,16.3290481 C6.66115833,16.940576 6.8636731,17.5224438 7.23799981,18.0066973 C6.98170852,18.2602476 6.61172363,18.6548159 6.28180752,19.1148126 C5.24343082,20.5627571 5.4571723,21.4799315 5.81934191,21.994315 C6.24899578,22.6046682 7.24662142,22.9803244 8.48788505,22.9992365 C8.5214411,22.9997651 8.55543133,23 8.59028992,23 C9.65062381,23 11.3083298,22.7519118 13.3479296,21.6197747 C15.4076259,20.476537 17.347674,18.7094375 19.1141115,16.3676357 C20.8628096,14.0493858 22.9604657,12.7858043 24.723988,12.9880807 C25.693888,13.0991448 26.460653,13.6627465 26.8277847,14.5343441 C27.4753358,16.0719151 26.8205277,18.1813105 25.0760474,20.17694 C24.5292885,20.8023877 24.0227845,21.4211985 23.5704911,22.0161049 C23.4203883,22.2135652 23.4677761,22.4888468 23.6762454,22.6309806 C23.8847147,22.7731145 24.1754924,22.7283012 24.3255952,22.5308409 C24.7657315,21.9519685 25.2593341,21.3489569 25.7927574,20.7387211 C27.757678,18.4910095 28.4676892,16.0496553 27.6920545,14.2080236 Z M8.20020862,17.7203152 C7.80777033,17.3487116 7.59160984,16.8545909 7.59160984,16.3290481 C7.59160984,15.9536269 7.70245024,15.5945921 7.90843848,15.2844819 L10.7726115,17.9965952 C10.4451144,18.1917062 10.0658877,18.2966033 9.66947971,18.2966033 C9.11447136,18.2966033 8.59264691,18.0919189 8.20020862,17.7203152 Z M16.1825163,10.1617904 C15.4502997,9.46844745 15.0470689,8.54663315 15.0470689,7.5661446 C15.0470689,7.36668736 15.0646223,7.16987311 15.097372,6.9767003 L19.5461844,11.1893241 C19.342181,11.2203351 19.134332,11.2369565 18.9236918,11.2369565 C17.8882303,11.2369565 16.9147328,10.8550746 16.1825163,10.1617904 Z M16.1825163,4.97044006 C16.9383027,4.25483729 17.9309662,3.89703591 18.9236918,3.89703591 C19.9164174,3.89703591 20.909143,4.25483729 21.6648053,4.97044006 C22.3970839,5.66378302 22.8003147,6.58559731 22.8003147,7.56608587 C22.8003147,8.54657442 22.3970839,9.46844745 21.6648053,10.1617317 C21.3375563,10.4716069 20.9618651,10.7187554 20.5542304,10.897891 L15.4050208,6.02205426 C15.594262,5.63606105 15.8552673,5.28031532 16.1825163,4.97044006 Z M15.5246689,10.7847125 C16.0417794,11.2743695 16.6562086,11.6382791 17.3263371,11.8612295 L11.4676745,17.4088542 L8.52913232,14.62632 L14.3877949,9.07863659 C14.6232455,9.71324655 15.0074964,10.2950556 15.5246689,10.7847125 Z" id="Shape"></path>
                    <path d="M2.01929588,9.04918033 C2.25712005,9.04918033 2.49885416,9.00975591 2.73394757,8.92657789 C3.2375241,8.74850419 3.63646297,8.39864854 3.85709577,7.94154462 C4.07772858,7.4844407 4.09386487,6.97469392 3.90233946,6.50633413 L2.19288518,2.32497904 L5.96356497,0.991417741 L7.06952181,3.69640625 C6.70465535,3.62506132 6.31465351,3.64618773 5.94103622,3.77831437 C4.90148644,4.14600625 4.37736716,5.23170743 4.77264433,6.19861585 C5.07855125,6.94675627 5.84670096,7.40790076 6.66021848,7.40790076 C6.89804264,7.40790076 7.13977676,7.36847634 7.37487016,7.28529832 C7.8784467,7.10722462 8.27738556,6.75736898 8.49801837,6.30026505 C8.71865117,5.84316113 8.73478747,5.33341435 8.54326205,4.86505456 L6.66828663,0.279007512 C6.62440832,0.171701515 6.53646551,0.0849447035 6.42388382,0.0379586456 C6.31130213,-0.00902741221 6.18314271,-0.0125484804 6.0677682,0.0282612774 L1.42690767,1.66954085 C1.186601,1.75450826 1.0658891,2.00456183 1.15724535,2.22806308 L2.42866128,5.33768581 C2.06379482,5.26634089 1.67379298,5.28752502 1.30017569,5.41959394 C0.260625908,5.78728582 -0.26349337,6.872987 0.131783797,7.83989542 C0.437628652,8.58803584 1.20577836,9.04918033 2.01929588,9.04918033 Z M7.64869068,5.94561845 C7.52984066,6.19174689 7.31510381,6.3801529 7.04388993,6.47602985 C6.48402255,6.67390234 5.85557592,6.41149618 5.64263889,5.89089758 C5.42982598,5.37024127 5.71202495,4.7856285 6.27176821,4.58764056 C6.39843812,4.54284796 6.52852149,4.5216061 6.65661884,4.5216061 C7.09465719,4.5216061 7.50830491,4.769928 7.67301925,5.17277283 C7.77616741,5.42501985 7.7675407,5.69943228 7.64869068,5.94561845 Z M1.6310318,6.22892013 C1.75770172,6.18412753 1.88778508,6.16288567 2.01588244,6.16288567 C2.45392079,6.16288567 2.86756851,6.41120756 3.03228284,6.8140524 C3.13536894,7.06629942 3.12674223,7.34071185 3.00789221,7.58689801 C2.88904219,7.83302645 2.67430534,8.02143247 2.40309146,8.11730942 C1.84322408,8.31523963 1.21477745,8.05277574 1.00184042,7.53217715 C0.789089572,7.01152083 1.07128855,6.42690806 1.6310318,6.22892013 Z" id="Shape"></path>
                </g>
                <g id="scooter" transform="translate(171.000000, 2.000000)">
                    <path d="M27.1304348,16.28 C25.9796734,16.28 25.0434783,17.2668894 25.0434783,18.4800363 C25.0434783,19.6931106 25.9796734,20.68 27.1304348,20.68 C28.2811962,20.68 29.2173913,19.6931106 29.2173913,18.4800363 C29.2173913,17.266962 28.2811962,16.28 27.1304348,16.28 Z M27.1304348,19.5904776 C26.5495762,19.5904776 26.0770344,19.0923479 26.0770344,18.4800363 C26.0770344,17.8677247 26.5495762,17.3695224 27.1304348,17.3695224 C27.7112933,17.3695224 28.1838352,17.8676521 28.1838352,18.4800363 C28.1838352,19.0922753 27.7112933,19.5904776 27.1304348,19.5904776 Z" id="Shape"></path>
                    <path d="M31.878479,14.0020438 C30.6514098,12.5992986 28.8505317,11.7947937 26.9376262,11.7947937 C26.6170997,11.7947937 26.3021535,11.8176085 25.9941132,11.8609766 C25.7817774,10.5478942 24.486557,8.80997732 23.2313763,7.38820862 L23.2313763,3.16221315 C23.2313763,3.00650038 23.1550638,2.85970068 23.025179,2.76531519 C22.8951547,2.67086319 22.7262069,2.63993348 22.5691174,2.68130612 L21.716426,2.90559637 C21.2612713,3.02532426 20.8634556,3.26172033 20.5550665,3.5749418 L20.1071663,1.61040665 C20.0548497,1.38106122 19.8420256,1.21749962 19.5959282,1.21749962 L18.6826192,1.21749962 L18.6826192,0.498866213 C18.6826192,0.223359033 18.44845,0 18.1594529,0 C17.8704558,0 17.6362865,0.223359033 17.6362865,0.498866213 L17.6362865,3.0100257 C17.6362865,3.28553288 17.8704558,3.50889191 18.1594529,3.50889191 C18.44845,3.50889191 18.6826192,3.28553288 18.6826192,3.0100257 L18.6826192,2.21523205 L19.1742561,2.21523205 L19.8186575,5.04180801 C19.542914,5.31944369 19.3564575,5.66346183 19.2779825,6.04233409 L17.7724493,7.62048073 C17.5780407,7.8242842 17.5936659,8.13983371 17.8073968,8.3252124 C17.9077052,8.41221466 18.0336837,8.45505064 18.1593134,8.45505064 C18.3014751,8.45505064 18.4432183,8.40010884 18.5464565,8.29188813 L19.4555103,7.33905367 C19.521499,7.46596523 19.6015784,7.58742252 19.6960273,7.70123054 C20.2886004,8.41520786 21.108437,9.50732577 21.649112,10.6559819 C22.2323378,11.894966 22.3701747,12.9246924 22.0587861,13.7165593 C21.6041894,14.8723326 20.2739518,15.7615782 18.5003481,16.09522 C16.6071137,16.4515435 14.7318762,16.0716735 13.8345413,15.1502343 C13.4392368,14.7442902 13.2621973,14.3413394 13.2933082,13.9183673 C13.3486244,13.1662101 14.049737,12.2633953 15.377045,11.2349992 C15.3786493,11.2337354 15.485724,11.1193953 15.4871192,11.1173998 C15.8969328,10.5548118 15.9484124,9.83019199 15.6189571,9.21977929 C15.2855955,8.60204989 14.6258478,8.218322 13.8972515,8.218322 L6.34872832,8.218322 C4.90485895,8.218322 3.71741084,9.28210431 3.60119815,10.630839 C3.30041238,10.9225094 2.59860215,11.6364868 1.8907232,12.5965049 C0.636100529,14.2979048 0,15.8857627 0,17.3159123 C0,17.5914195 0.23416926,17.8147785 0.523166353,17.8147785 L1.64037066,17.8147785 L2.31351137,17.8147785 C2.31246503,17.8514286 2.31106992,17.8880121 2.31106992,17.9246621 C2.31106992,20.1718216 4.22830022,22 6.58492049,22 C8.56786048,22 10.2394816,20.7054754 10.7197483,18.9561844 L22.8027984,18.9561844 C23.2831349,20.7054089 24.9546863,22 26.9376262,22 C29.2942465,22 31.2115466,20.1718216 31.2115466,17.9246621 C31.2115466,17.1012003 30.9532419,16.3345427 30.5110617,15.6929342 L31.8027943,14.7117642 C31.9129383,14.6280877 31.9830425,14.5056327 31.9973424,14.3721361 C32.0115028,14.2385064 31.9686729,14.1050763 31.878479,14.0020438 Z M10.8619798,9.21598791 L13.8972515,9.21598791 C14.2371701,9.21598791 14.5330032,9.38806349 14.688558,9.67627513 C14.8051893,9.89231746 14.8202564,10.1315737 14.7373171,10.3489463 L10.8619798,10.3489463 L10.8619798,9.21598791 Z M6.34872832,9.21598791 L9.81564711,9.21598791 L9.81564711,10.3489463 L4.71910001,10.3489463 C4.94071328,9.6924384 5.5874864,9.21598791 6.34872832,9.21598791 Z M6.58485074,21.0023341 C4.80517832,21.0023341 3.35733287,19.6217385 3.35733287,17.9247286 C3.35733287,17.8880121 3.35844896,17.8513621 3.35977432,17.814845 L4.47523474,17.814845 C4.47321183,17.8512955 4.47202598,17.8879456 4.47202598,17.9247286 C4.47202598,19.0356704 5.41979415,19.9394165 6.58478098,19.9394165 C7.74976782,19.9394165 8.69760574,19.0356704 8.69760574,17.9247286 C8.69760574,17.8879456 8.69641989,17.8512955 8.69439698,17.814845 L9.80992716,17.814845 C9.81125251,17.8514286 9.8123686,17.8880121 9.8123686,17.9247286 C9.81243836,19.621672 8.36452316,21.0023341 6.58485074,21.0023341 Z M5.51842844,17.9247286 C5.51842844,17.887746 5.52073038,17.851096 5.5247762,17.814845 L7.64499504,17.814845 C7.64911061,17.851096 7.65134279,17.887746 7.65134279,17.9247286 C7.65134279,18.4854543 7.17295947,18.9416841 6.58485074,18.9416841 C5.99688151,18.9416841 5.51842844,18.4854543 5.51842844,17.9247286 Z M10.0182171,16.8170461 L2.3316478,16.8170461 C2.50464148,16.34013 2.82467977,15.6396553 3.37644589,14.9646561 C4.63943922,13.4193681 6.48677449,12.7165654 8.86564677,12.8762026 C9.92007111,12.9469085 10.5825392,13.2118398 10.8347752,13.6636795 C11.16437,14.2544036 10.889603,15.3145941 10.0182171,16.8170461 Z M20.5099347,17.9585185 L10.8578642,17.9585185 C10.857934,17.9472109 10.8587711,17.9360363 10.8587711,17.9247286 C10.8587711,17.7732729 10.8491448,17.6223492 10.8318454,17.4733545 C11.6418465,16.1179683 12.4484992,14.4315344 11.7583382,13.1950113 C11.325575,12.4195072 10.3769697,11.9773787 8.93902957,11.8809977 C5.49164233,11.6497899 3.54699812,13.1160574 2.52242913,14.3867695 C1.76439596,15.3267664 1.39378492,16.2889796 1.23257993,16.8171791 L1.07751342,16.8171791 C1.37543922,14.3830446 3.72103812,11.9444535 4.33125936,11.3468118 L13.6876362,11.3468118 C12.780675,12.2300711 12.3079419,13.0549297 12.2495565,13.8486591 C12.1977979,14.5521935 12.4730532,15.2185457 13.0677189,15.8292245 C14.2201498,17.0126682 16.4320971,17.501291 18.7027786,17.0741285 C19.4389085,16.9356432 20.1140024,16.7108874 20.7065755,16.4150265 C20.577737,16.898195 20.5090279,17.4039788 20.5090279,17.9247952 C20.5090976,17.9359698 20.5098649,17.9472109 20.5099347,17.9585185 Z M21.994611,3.86741043 L22.1849738,3.81732426 L22.1849738,6.25751172 C21.6470193,5.7011096 21.1903997,5.26310506 20.9326531,5.02105518 C21.0138485,4.47655933 21.4271499,4.0166712 21.994611,3.86741043 Z M20.5163522,7.08197128 C20.3346391,6.86306878 20.2545597,6.58955707 20.2909721,6.31185488 C20.3083412,6.17882389 20.3513106,6.05297657 20.4168808,5.93910204 C21.9353886,7.39658957 24.819221,10.4729312 24.9713578,12.0884596 C24.3570908,12.2770975 23.7829331,12.5515404 23.2643706,12.8970884 C23.2938772,11.5969766 22.6966305,9.70886772 20.5163522,7.08197128 Z M26.9376262,21.0023341 C25.1579538,21.0023341 23.7100386,19.6217385 23.7100386,17.9247286 C23.7100386,16.2277188 25.1579538,14.8471232 26.9376262,14.8471232 C28.7172987,14.8471232 30.1652139,16.2277188 30.1652139,17.9247286 C30.1652139,19.6217385 28.7172987,21.0023341 26.9376262,21.0023341 Z M29.8341542,14.9314649 C29.0720054,14.2603235 28.0543423,13.8493243 26.9376262,13.8493243 C24.581006,13.8493243 22.6637059,15.6775026 22.6637059,17.9246621 C22.6637059,17.9359698 22.6644732,17.9471444 22.6646127,17.958452 L21.5561976,17.958452 C21.5561279,17.9471444 21.5553606,17.9359698 21.5553606,17.9246621 C21.5553606,15.0947604 23.9698082,12.7924596 26.9375565,12.7924596 C28.3595226,12.7924596 29.7077572,13.3235858 30.7116088,14.2649131 L29.8341542,14.9314649 Z" id="Shape"></path>
                </g>
                <g id="holiday" transform="translate(230.000000, 1.000000)">
                    <path d="M20.6019709,10.0905757 C20.54971,9.92160994 20.3921031,9.80536495 20.2124049,9.8033123 C20.0307833,9.80104358 19.8723521,9.91383147 19.8161895,10.0816089 L16.1519389,21.0134995 C16.0848406,21.2136332 16.185021,21.4308363 16.3822494,21.5131585 C17.552651,22.0016899 18.80911,22.2459016 20.0655689,22.2459016 C21.3220278,22.2459016 22.5785417,22.0016899 23.7488883,21.5131585 C23.9427646,21.4322407 24.0433846,21.2205474 23.9821114,21.0224663 L20.6019709,10.0905757 Z M17.0561453,20.905141 L20.1917973,11.5502822 L23.0834003,20.902062 C21.1490889,21.6130903 18.9912262,21.6141166 17.0561453,20.905141 Z" id="Shape"></path>
                    <path d="M12.3300199,14.5125577 C11.7717389,14.9526885 11.4265996,15.5777485 11.3581831,16.2726493 C11.2897666,16.96755 11.5066319,17.6447074 11.9688741,18.1795409 C12.0512962,18.2749448 12.169455,18.324076 12.2884475,18.324076 C12.3829301,18.324076 12.4780241,18.2930656 12.5560556,18.229535 C12.7324601,18.0859707 12.755525,17.8308232 12.6075764,17.6597002 C12.2900037,17.2922684 12.1409991,16.8270058 12.1880181,16.3496088 C12.2350371,15.8722117 12.4721328,15.4428132 12.8557321,15.1404222 C13.4172922,14.6977567 13.762765,14.0688675 13.8286249,13.3697063 C13.8942625,12.6734033 13.6738957,11.997001 13.2083189,11.4638393 C15.534647,11.0004643 17.3114754,8.62528988 17.3114754,5.77331167 C17.3114754,2.58987364 15.098193,0 12.3777614,0 C10.5592494,0 8.8826281,1.1843783 8.02956148,3.04278603 C7.91668258,3.03372562 7.80280327,3.02871004 7.68797914,3.02871004 C4.96743637,3.02871004 2.75409836,5.61852975 2.75409836,8.80191385 C2.75409836,11.9081227 4.86161587,14.4488113 7.49128862,14.5701021 L7.87866723,15.0109339 C8.20124191,15.3779343 8.35397023,15.844599 8.30867417,16.3249084 C8.2633781,16.8052177 8.02606007,17.2372588 7.64029322,17.5413756 C7.08201228,17.9815603 6.73687294,18.6065664 6.66845643,19.3014672 C6.60003992,19.9963679 6.81690525,20.6735253 7.27914742,21.2083588 L8.70266656,22.855411 C8.78508872,22.9508149 8.90324754,23 9.02224002,23 C9.11672261,23 9.21181656,22.9689897 9.28984806,22.905459 C9.46625261,22.7618947 9.48931748,22.5067472 9.34136886,22.3356242 L7.91784972,20.688572 C7.60027706,20.3211402 7.45127246,19.8558777 7.49829145,19.3784806 C7.54531043,18.9010835 7.78240615,18.4716851 8.16600546,18.169294 C8.7275655,17.7266285 9.07303831,17.0977394 9.13889823,16.398632 C9.20453584,15.702437 8.98422467,15.0260885 8.5187034,14.4929268 C10.0400398,14.1898347 11.3262257,13.0692568 12.0342894,11.5321698 C12.0830313,11.5361068 12.1319399,11.5388573 12.1808485,11.5411224 L12.5684495,11.9821699 C12.8909686,12.3491703 13.0436969,12.8158351 12.9984008,13.2961444 C12.9531048,13.7764537 12.7157867,14.2084409 12.3300199,14.5125577 Z M12.3777614,0.808964736 C14.6385074,0.808964736 16.4778055,3.03593679 16.4778055,5.77331167 C16.4778055,8.51036296 14.6385074,10.7371193 12.3777614,10.7371193 C12.3640336,10.7371193 12.3503614,10.7364721 12.3366337,10.7363103 C12.5210414,10.1312586 12.6218599,9.48014988 12.6218599,8.80191385 C12.6218599,6.09705935 11.0237703,3.82111797 8.87451372,3.19789153 C9.61336756,1.73274853 10.9477952,0.808964736 12.3777614,0.808964736 Z M7.68792356,13.7661529 C5.42701079,13.7661529 3.58771268,11.5392348 3.58771268,8.80191385 C3.58771268,6.0645929 5.42706637,3.83767478 7.68792356,3.83767478 C9.94878075,3.83767478 11.7881344,6.0645929 11.7881344,8.80191385 C11.78819,11.5391809 9.94883633,13.7661529 7.68792356,13.7661529 Z" id="Shape"></path>
                    <path d="M19.6427454,16.0681326 C19.551956,15.8630007 19.28892,15.7737252 19.0845122,15.883176 C18.8574861,16.0047319 18.8186818,16.3041326 18.997888,16.4807669 C19.1266907,16.6002044 19.3245609,16.6257765 19.4798307,16.5379637 C19.6467523,16.4434931 19.7167687,16.2393196 19.6427454,16.0681326 C19.632728,16.0454354 19.6527628,16.0913341 19.6427454,16.0681326 Z" id="Shape"></path>
                    <path d="M20.4887565,18.2423002 C20.5499519,18.3817129 20.6937743,18.4753091 20.8522521,18.4754098 C21.0131463,18.4754602 21.1606982,18.3783899 21.2193723,18.2351509 C21.2788343,18.0899986 21.2360237,17.9193201 21.1141581,17.8157047 C20.9877751,17.7082628 20.7990935,17.6907418 20.6534326,17.7724057 C20.4867079,17.8659516 20.4131157,18.0708665 20.4887565,18.2423002 C20.4987368,18.2649567 20.4787761,18.2196438 20.4887565,18.2423002 Z" id="Shape"></path>
                    <path d="M18.8558176,20.2165172 C18.7904443,20.0685285 18.6315004,19.9723359 18.4632625,19.9846683 C18.2986477,19.996749 18.1572943,20.1082439 18.1129244,20.2605615 C18.0171485,20.5890561 18.4140093,20.8661574 18.7108936,20.6750808 C18.8654267,20.5756667 18.9269669,20.3814189 18.8558176,20.2165172 C18.845841,20.1938659 18.8657943,20.2396719 18.8558176,20.2165172 Z" id="Shape"></path>
                    <path d="M0.61680399,1.60962014 C0.475655054,1.47438892 0.246926334,1.47438892 0.105825572,1.60962014 C-0.0352751906,1.74485136 -0.0352751906,1.96406537 0.105825572,2.0992966 L0.563475706,2.5379093 C0.634050174,2.605548 0.726543674,2.63934426 0.818989001,2.63934426 C0.911434328,2.63934426 1.00392783,2.605548 1.0745023,2.5379093 C1.21560306,2.40267808 1.21560306,2.18346407 1.0745023,2.04823284 L0.61680399,1.60962014 Z" id="Shape"></path>
                    <path d="M19.2465513,3.7704918 C19.3390004,3.7704918 19.4314977,3.73669554 19.5020751,3.66905684 L19.9597439,3.23044414 C20.1008504,3.09521292 20.1008504,2.8759989 19.9597439,2.74076768 C19.8185892,2.60553646 19.5898511,2.60553646 19.4487446,2.74076768 L18.9910758,3.17938039 C18.8499693,3.31461161 18.8499693,3.53382562 18.9910758,3.66905684 C19.0616531,3.73669554 19.1541022,3.7704918 19.2465513,3.7704918 Z" id="Shape"></path>
                    <path d="M13.5758888,8.2356359 C13.6406658,8.27594794 13.7117638,8.29508197 13.7819434,8.29508197 C13.9204117,8.29508197 14.0553143,8.2204763 14.1310045,8.08614069 L14.5008115,7.42973577 C14.6147521,7.22738068 14.5511636,6.96614731 14.3585614,6.84634674 C14.1660673,6.72660294 13.9176024,6.79337331 13.8034457,6.99578517 L13.4336387,7.65219009 C13.3196442,7.85465874 13.3832866,8.11583533 13.5758888,8.2356359 Z" id="Shape"></path>
                    <path d="M4.89134456,18.1997841 L4.43369442,18.6383968 C4.29259366,18.773628 4.29259366,18.9928882 4.43369442,19.1280732 C4.50426889,19.1956658 4.59676239,19.2295082 4.68920772,19.2295082 C4.78165305,19.2295082 4.87414655,19.1957119 4.94472102,19.1280732 L5.40237115,18.6894605 C5.54347191,18.5542293 5.54347191,18.3349691 5.40237115,18.1997841 C5.26117404,18.0645529 5.03244532,18.0645529 4.89134456,18.1997841 Z" id="Shape"></path>
                    <path d="M0.786885246,12.0655738 C0.569547541,12.0655738 0.393442623,12.2436826 0.393442623,12.4633749 L0.393442623,13.1759694 C0.393442623,13.3956617 0.569547541,13.5737705 0.786885246,13.5737705 C1.00422295,13.5737705 1.18032787,13.3956617 1.18032787,13.1759694 L1.18032787,12.4633749 C1.18032787,12.2436826 1.00417049,12.0655738 0.786885246,12.0655738 Z" id="Shape"></path>
                    <path d="M20.4373768,10.557377 L19.6937708,10.557377 C19.4644793,10.557377 19.2786885,10.7261945 19.2786885,10.9344262 C19.2786885,11.1426579 19.4644793,11.3114754 19.6937708,11.3114754 L20.4373768,11.3114754 C20.6666682,11.3114754 20.852459,11.1426579 20.852459,10.9344262 C20.852459,10.7261945 20.6666682,10.557377 20.4373768,10.557377 Z" id="Shape"></path>
                    <path d="M7.06031299,4.90163934 L6.31673619,4.90163934 C6.08743669,4.90163934 5.90163934,5.07045683 5.90163934,5.27868852 C5.90163934,5.48692022 6.08743669,5.6557377 6.31673619,5.6557377 L7.06031299,5.6557377 C7.28961249,5.6557377 7.47540984,5.48692022 7.47540984,5.27868852 C7.47540984,5.07045683 7.28961249,4.90163934 7.06031299,4.90163934 Z" id="Shape"></path>
                </g>
                <g id="shopping-bag" transform="translate(282.000000, 1.000000)">
                    <path d="M8.92539286,19.6751799 L1.08037551,19.6751799 L2.11023336,1.02482012 L15.9163424,1.02482012 L16.44932,10.6819734 C16.4648803,10.9645505 16.7119537,11.1808558 17.002554,11.1660984 C17.2924535,11.1508628 17.5148545,10.9094835 17.4992241,10.6269064 L16.9394715,0.48487656 C16.9244718,0.212957621 16.69387,0 16.4145545,0 L1.6120914,0 C1.33277584,0 1.10217404,0.212957621 1.0871744,0.48487656 L0.000752524092,20.1600564 C-0.00695756667,20.3005251 0.0448402249,20.4379193 0.144090121,20.5400597 C0.243410108,20.6422001 0.381350641,20.7 0.525669522,20.7 L8.92539286,20.7 C9.21578292,20.7 9.45108087,20.4705769 9.45108087,20.1875899 C9.45108087,19.9046029 9.21578292,19.6751799 8.92539286,19.6751799 Z" id="Shape"></path>
                    <path d="M4.79945799,1.91666667 C4.51128184,1.91666667 4.27777778,2.15155424 4.27777778,2.44128155 L4.27777778,4.89815797 C4.27777778,7.27018667 6.19679584,9.2 8.55555556,9.2 C10.9143153,9.2 12.8333333,7.27018667 12.8333333,4.89815797 L12.8333333,2.44128155 C12.8333333,2.15155424 12.5998293,1.91666667 12.3116531,1.91666667 C12.023477,1.91666667 11.7899729,2.15155424 11.7899729,2.44128155 L11.7899729,4.89815797 C11.7899729,6.69164138 10.3390759,8.15077024 8.55555556,8.15077024 C6.77203523,8.15077024 5.32113821,6.69164138 5.32113821,4.89815797 L5.32113821,2.44128155 C5.32113821,2.15155424 5.08763415,1.91666667 4.79945799,1.91666667 Z" id="Shape"></path>
                    <path d="M27.4800193,11.9012763 L26.0366378,11.9012763 L25.7316111,6.27408425 C25.7169804,6.00376614 25.4887824,5.79189703 25.2123238,5.79189703 L24.3803131,5.79189703 L24.3803131,5.27291614 C24.3803131,4.26774281 23.5450434,3.45 22.518326,3.45 C21.4916086,3.45 20.6562695,4.26774281 20.6562695,5.27291614 L20.6562695,5.79189703 L19.9761828,5.79189703 C19.6997242,5.79189703 19.4715262,6.00376614 19.4568955,6.27408425 L19.1519382,11.9012763 L10.6311611,11.9012763 C10.3438855,11.9012763 10.1111111,12.1292341 10.1111111,12.4104138 L10.1111111,22.4908624 C10.1111111,22.7720421 10.3438855,23 10.6311611,23 L27.47995,23 C27.7672256,23 28,22.7720421 28,22.4908624 L28,12.4104138 C28.0000693,12.1292341 27.7672256,11.9012763 27.4800193,11.9012763 Z M21.6963002,5.27298402 C21.6963002,4.82928761 22.064981,4.46834302 22.5182567,4.46834302 C22.9713936,4.46834302 23.3401437,4.82928761 23.3401437,5.27298402 L23.3401437,5.79196492 L21.6963696,5.79196492 L21.6963696,5.27298402 L21.6963002,5.27298402 Z M20.4693289,6.81024005 L24.719039,6.81024005 L24.9950122,11.9012763 L20.1933557,11.9012763 L20.4693289,6.81024005 Z M26.9599693,12.9195514 L26.9599693,14.4468283 L11.1512112,14.4468283 L11.1512112,12.9195514 L26.9599693,12.9195514 Z M11.1512112,21.9817249 L11.1512112,15.4651713 L26.9598999,15.4651713 L26.9598999,21.9817249 L11.1512112,21.9817249 Z" id="Shape"></path>
                </g>
                <g id="birthday" transform="translate(341.000000, 0.000000)">
                    <path d="M3.23691645,13.7142857 C3.48958104,13.7142857 3.69442114,13.5122913 3.69442114,13.2631368 L3.69442114,10.9820075 C3.75407975,11.0429427 3.8170934,11.1167507 3.89041615,11.2043939 C4.16070992,11.5275368 4.53092271,11.9700237 5.24975408,11.9700237 C5.96864645,11.9700237 6.33885924,11.5275368 6.60915301,11.204454 C6.85632754,10.9089815 6.98735689,10.7669599 7.26265271,10.7669599 C7.53788753,10.7669599 7.66891687,10.9089815 7.9160304,11.2043939 C8.18626317,11.5274766 8.55641496,11.9700237 9.27524633,11.9700237 C9.9940777,11.9700237 10.3642295,11.5275368 10.6344623,11.2043939 C10.8815758,10.9089214 11.0126051,10.7669599 11.28784,10.7669599 C11.5631968,10.7669599 11.6942261,10.9089815 11.9413397,11.204454 C12.2116334,11.5275368 12.5818462,11.9700237 13.3007386,11.9700237 C14.0196309,11.9700237 14.3898437,11.5275368 14.6601375,11.204454 C14.907312,10.9089815 15.0383414,10.7669599 15.3136372,10.7669599 C15.588994,10.7669599 15.7200844,10.9089815 15.9672589,11.204454 C16.2375527,11.5275368 16.6077655,11.9700237 17.3266578,11.9700237 C18.0455502,11.9700237 18.415763,11.5275368 18.6860568,11.2043939 C18.9332313,10.9089214 19.0642606,10.7669599 19.3395565,10.7669599 C19.6150353,10.7669599 19.7460646,10.9089815 19.9933002,11.204454 C20.2636549,11.5275368 20.6338677,11.9700237 21.3528211,11.9700237 C22.0717745,11.9700237 22.4419873,11.5275368 22.712342,11.204454 C22.7857258,11.1167507 22.8488004,11.0428825 22.90852,10.9818872 L22.90852,12.6316486 C22.90852,12.8808031 23.1133601,13.0827975 23.3660247,13.0827975 C23.6186893,13.0827975 23.8235294,12.8808031 23.8235294,12.6316486 L23.8235294,9.17037389 C23.8235294,8.19336577 23.0174672,7.39850152 22.026695,7.39850152 L19.0730447,7.39850152 L19.0730447,3.87972035 C19.0730447,3.63056584 18.8682046,3.42857143 18.61554,3.42857143 L17.0602071,3.42857143 C16.8075425,3.42857143 16.6027024,3.63056584 16.6027024,3.87972035 L16.6027024,7.39850152 L14.2695505,7.39850152 L14.2695505,3.87972035 C14.2695505,3.63056584 14.0647104,3.42857143 13.8120458,3.42857143 L12.2565909,3.42857143 C12.0039263,3.42857143 11.7990862,3.63056584 11.7990862,3.87972035 L11.7990862,7.39850152 L9.46593428,7.39850152 L9.46593428,3.87972035 C9.46593428,3.63056584 9.26109418,3.42857143 9.0084296,3.42857143 L7.45297466,3.42857143 C7.20031007,3.42857143 6.99546997,3.63056584 6.99546997,3.87972035 L6.99546997,7.39850152 L4.57618518,7.39850152 C3.58541302,7.39850152 2.77941176,8.19336577 2.77941176,9.17037389 L2.77941176,13.2631969 C2.77941176,13.5122913 2.98425186,13.7142857 3.23691645,13.7142857 Z M17.5177118,4.33086928 L18.1581574,4.33086928 L18.1581574,7.39850152 L17.5177118,7.39850152 L17.5177118,4.33086928 Z M12.7141566,4.33086928 L13.3546021,4.33086928 L13.3546021,7.39850152 L12.7141566,7.39850152 L12.7141566,4.33086928 Z M7.91060135,4.33086928 L8.55104691,4.33086928 L8.55104691,7.39850152 L7.91060135,7.39850152 L7.91060135,4.33086928 Z M4.57618518,8.30079937 L22.026817,8.30079937 C22.513053,8.30079937 22.908642,8.69089281 22.908642,9.17037389 L22.908642,9.93305618 C22.4769406,10.0694235 22.2125639,10.3842051 22.0066258,10.6302317 C21.7593903,10.9257041 21.6283609,11.0677258 21.3528821,11.0677258 C21.0774643,11.0677258 20.9463739,10.9257041 20.6991994,10.6302317 C20.4288446,10.3071489 20.0586318,9.86466201 19.3396785,9.86466201 C18.6207861,9.86466201 18.2505733,10.3071489 17.9803405,10.6302317 C17.733166,10.9257041 17.6021367,11.0677258 17.3267798,11.0677258 C17.051423,11.0677258 16.9203327,10.9257041 16.6731581,10.6302317 C16.4028644,10.3071489 16.0326516,9.86466201 15.3137592,9.86466201 C14.5948668,9.86466201 14.224654,10.3071489 13.9543603,10.6302317 C13.7071857,10.9257041 13.5761564,11.0677258 13.3008606,11.0677258 C13.0255648,11.0677258 12.8944744,10.9257041 12.6473609,10.6302317 C12.3770671,10.3071489 12.0068543,9.86466201 11.287962,9.86466201 C10.5690696,9.86466201 10.1989788,10.3071489 9.92868503,10.6302918 C9.68157149,10.9257643 9.55054215,11.0677258 9.27530733,11.0677258 C9.00007251,11.0677258 8.86904317,10.9257041 8.62192964,10.6302918 C8.35169687,10.307209 7.98154507,9.86466201 7.26271371,9.86466201 C6.54382134,9.86466201 6.17360855,10.3071489 5.90331478,10.6302317 C5.65614024,10.9257041 5.5251109,11.0677258 5.24981508,11.0677258 C4.97451926,11.0677258 4.84348992,10.9257041 4.59631538,10.6302918 C4.39043827,10.3842051 4.12612256,10.0694235 3.69448214,9.93305618 L3.69448214,9.17037389 C3.69442114,8.69089281 4.08994919,8.30079937 4.57618518,8.30079937 Z" id="Shape"></path>
                    <path d="M13.4128329,17.1428571 L10.4106965,17.1428571 C10.1432747,17.1428571 9.92647059,17.3134222 9.92647059,17.5238095 C9.92647059,17.7341968 10.1432747,17.9047619 10.4106965,17.9047619 L13.4128329,17.9047619 C13.6802547,17.9047619 13.8970588,17.7341968 13.8970588,17.5238095 C13.8970588,17.3134222 13.6802547,17.1428571 13.4128329,17.1428571 Z" id="Shape"></path>
                    <path d="M11.9793791,2.99048729 C12.2891612,3.28254338 12.6960833,3.42857143 13.1029412,3.42857143 C13.5098633,3.42857143 13.9167854,3.28254338 14.2265033,2.99042675 C14.8460675,2.40625402 14.8460675,1.4556187 14.2265033,0.871445977 L13.4434126,0.13301145 C13.3531424,0.0478284231 13.230642,0 13.1029412,0 C12.9752403,0 12.8527399,0.0478284231 12.7624698,0.13301145 L11.9793791,0.871445977 C11.3598148,1.45567925 11.3598148,2.40625402 11.9793791,2.99048729 C11.9793791,2.99048729 11.9793791,2.99048729 11.9793791,2.99048729 Z M12.6603219,1.51361824 L13.1029412,1.09623957 L13.5455604,1.51361824 C13.7895981,1.74373955 13.7895981,2.11819372 13.5455604,2.34831503 C13.3015228,2.57855743 12.9043596,2.57849689 12.6603219,2.34831503 C12.4162842,2.11819372 12.4162842,1.74373955 12.6603219,1.51361824 Z" id="Shape"></path>
                    <path d="M7.21467319,2.99048729 C7.52445531,3.28254338 7.9313774,3.42857143 8.33823529,3.42857143 C8.74515739,3.42857143 9.15207948,3.28254338 9.4617974,2.99042675 C10.0813617,2.40625402 10.0813617,1.4556187 9.4617974,0.871445977 L8.67870671,0.13301145 C8.58843652,0.0478284231 8.46593615,0 8.33823529,0 C8.21053444,0 8.08803406,0.0478284231 7.99776387,0.13301145 L7.21467319,0.871445977 C6.59510894,1.45567925 6.59510894,2.40625402 7.21467319,2.99048729 C7.21467319,2.99048729 7.21467319,2.99048729 7.21467319,2.99048729 Z M7.89561603,1.51361824 L8.33823529,1.09623957 L8.78085456,1.51361824 C9.02489225,1.74373955 9.02489225,2.11819372 8.78085456,2.34831503 C8.53681687,2.57855743 8.13965372,2.57849689 7.89561603,2.34831503 C7.65157834,2.11819372 7.65157834,1.74373955 7.89561603,1.51361824 Z" id="Shape"></path>
                    <path d="M16.744085,2.99048729 C17.0538671,3.28254338 17.4607892,3.42857143 17.8676471,3.42857143 C18.2745692,3.42857143 18.6814912,3.28254338 18.9912092,2.99042675 C19.6107734,2.40625402 19.6107734,1.4556187 18.9912092,0.871445977 L18.2081185,0.13301145 C18.1178483,0.0478284231 17.9953479,0 17.8676471,0 C17.7399462,0 17.6174458,0.0478284231 17.5271756,0.13301145 L16.744085,0.871445977 C16.1245207,1.45567925 16.1245207,2.40625402 16.744085,2.99048729 C16.744085,2.99048729 16.744085,2.99048729 16.744085,2.99048729 Z M17.4250278,1.51361824 L17.8676471,1.09623957 L18.3102663,1.51361824 C18.554304,1.74373955 18.554304,2.11819372 18.3102663,2.34831503 C18.0662286,2.57855743 17.6690655,2.57849689 17.4250278,2.34831503 C17.1809901,2.11819372 17.1809901,1.74373955 17.4250278,1.51361824 Z" id="Shape"></path>
                    <path d="M4.23517411,21.9630284 L0.913277914,21.9630284 L0.913277914,17.4033425 L8.21907503,17.4033425 L8.21907503,17.7371452 C8.21907503,17.9840401 8.42352751,18.1842025 8.67571398,18.1842025 C8.92790046,18.1842025 9.13235294,17.9840401 9.13235294,17.7371452 L9.13235294,14.5422953 C9.13235294,14.2954005 8.92790046,14.0952381 8.67571398,14.0952381 L0.456638957,14.0952381 C0.204452482,14.0952381 0,14.2954005 0,14.5422953 L0,22.4100856 C0,22.6569804 0.204452482,22.8571429 0.456638957,22.8571429 L4.23517411,22.8571429 C4.48736059,22.8571429 4.69181307,22.6569804 4.69181307,22.4100856 C4.69181307,22.1631908 4.48736059,21.9630284 4.23517411,21.9630284 Z M8.21907503,14.9893526 L8.21907503,16.509228 L0.913277914,16.509228 L0.913277914,14.9893526 L8.21907503,14.9893526 Z" id="Shape"></path>
                    <path d="M26.5411404,13.3333333 L14.7529772,13.3333333 C14.4995644,13.3333333 14.2941176,13.533454 14.2941176,13.7802973 L14.2941176,19.7435122 C14.2941176,19.9903555 14.4995644,20.1904762 14.7529772,20.1904762 L26.5411404,20.1904762 C26.7945533,20.1904762 27,19.9903555 27,19.7435122 L27,13.7802973 C27,13.5333944 26.7945533,13.3333333 26.5411404,13.3333333 Z M26.0822809,15.6334101 L21.1059184,15.6334101 L21.1059184,14.2272017 L26.0822809,14.2272017 L26.0822809,15.6334101 Z M20.1881993,14.2272613 L20.1881993,15.6334697 L15.2118368,15.6334697 L15.2118368,14.2272613 L20.1881993,14.2272613 Z M15.2118368,16.5273381 L20.1881993,16.5273381 L20.1881993,19.2964886 L15.2118368,19.2964886 L15.2118368,16.5273381 Z M21.1059184,19.2964886 L21.1059184,16.5273381 L26.0822809,16.5273381 L26.0822809,19.2964886 L21.1059184,19.2964886 Z" id="Shape"></path>
                    <path d="M12.6414407,18.6666667 L6.02032401,18.6666667 C5.76545268,18.6666667 5.55882353,18.8671899 5.55882353,19.1145298 L5.55882353,23.5521369 C5.55882353,23.7994767 5.76545268,24 6.02032401,24 L12.6414407,24 C12.896312,24 13.1029412,23.7994767 13.1029412,23.5521369 L13.1029412,19.1145298 C13.1029412,18.8671899 12.896312,18.6666667 12.6414407,18.6666667 Z M12.1799402,20.8855001 L9.79238284,20.8855001 L9.79238284,19.5623929 L12.1799402,19.5623929 L12.1799402,20.8855001 Z M8.86938187,19.5623929 L8.86938187,20.8855001 L6.4818245,20.8855001 L6.4818245,19.5623929 L8.86938187,19.5623929 Z M6.4818245,21.7812263 L8.86938187,21.7812263 L8.86938187,23.1043334 L6.4818245,23.1043334 L6.4818245,21.7812263 Z M9.79238284,23.1043334 L9.79238284,21.7812263 L12.1799402,21.7812263 L12.1799402,23.1043334 L9.79238284,23.1043334 Z" id="Shape"></path>
                </g>
                <g id="camping" transform="translate(445.000000, 0.000000)">
                    <path d="M6.92307692,20.6140351 C6.15963217,20.6140351 5.53846154,21.2042831 5.53846154,21.9297951 C5.53846154,22.6553071 6.15963217,23.245614 6.92307692,23.245614 C7.68652167,23.245614 8.30769231,22.6553071 8.30769231,21.9297951 C8.30769231,21.2042831 7.68658366,20.6140351 6.92307692,20.6140351 Z M6.92307692,22.361921 C6.67231492,22.361921 6.4683577,22.1680387 6.4683577,21.9297951 C6.4683577,21.6915515 6.67231492,21.4977281 6.92307692,21.4977281 C7.17383892,21.4977281 7.37779615,21.6915515 7.37779615,21.9297951 C7.37779615,22.1680387 7.17383892,22.361921 6.92307692,22.361921 Z" id="Shape"></path>
                    <path d="M18.4627884,21.6021522 L16.8545401,21.6021522 L16.8545401,13.6206999 C16.8545401,11.9144407 15.4143892,10.5263158 13.6441807,10.5263158 L9.44573522,10.5263158 C4.23735522,10.5263158 0,14.6105952 0,19.6308207 L0,22.0461084 C0,22.2911273 0.206025165,22.4897689 0.460288572,22.4897689 L3.63186095,22.4897689 C3.85470199,23.9088318 5.12859664,25 6.66209405,25 C8.19559146,25 9.46942474,23.9088318 9.69232715,22.4897689 L17.1061031,22.4894731 L17.1061031,24.5563395 C17.1061031,24.8013584 17.3121283,25 17.5663917,25 C17.8206551,25 18.0266803,24.8013584 18.0266803,24.5563395 L18.0266803,22.4894731 L18.4627884,22.4894731 C18.7170518,22.4894731 18.9230769,22.2908316 18.9230769,22.0458127 C18.9230769,21.8007937 18.7170518,21.6021522 18.4627884,21.6021522 Z M6.66209405,24.112679 C5.47970477,24.112679 4.51782439,23.1854877 4.51782439,22.0458127 C4.51782439,20.9061376 5.47976614,19.9790054 6.66209405,19.9790054 C7.84442196,19.9790054 8.80636371,20.9061967 8.80636371,22.0458127 C8.80642508,23.1854877 7.84448334,24.112679 6.66209405,24.112679 Z M15.9339629,21.6025071 L9.69238852,21.6025071 C9.46979297,20.1831484 8.19577557,19.0916845 6.66209405,19.0916845 C5.12841253,19.0916845 3.85439513,20.1831484 3.63179958,21.6025071 L0.920577144,21.6025071 L0.920577144,19.6308798 C0.920577144,15.0999231 4.74490009,11.4136959 9.44573522,11.4136959 L13.6441807,11.4136959 C14.9067216,11.4136959 15.9339629,12.4037687 15.9339629,13.620759 L15.9339629,21.6025071 Z" id="Shape"></path>
                    <path d="M23.9255121,18.6162578 L20.8545442,14.0776392 L22.592291,14.0776392 C22.7591631,14.0776392 22.9125934,13.9888528 22.9919122,13.8464539 C23.071231,13.7040551 23.0635413,13.530945 22.9719917,13.3955927 L20.3702154,9.55035378 L21.4563374,9.55035378 C21.6232096,9.55035378 21.7766399,9.46156736 21.8559586,9.3191685 C21.9352774,9.17676965 21.9275877,9.00365961 21.8360381,8.86830729 L19.4857205,5.39471469 L20.7016588,5.39471469 C20.868531,5.39471469 21.0219613,5.30592827 21.10128,5.16352941 C21.1805988,5.02113055 21.1729091,4.84796179 21.0813595,4.7126682 L18.0272241,0.19877119 C17.9432431,0.0746933393 17.8005299,0 17.6475235,0 C17.494517,0 17.3518038,0.0746933393 17.2678228,0.19877119 L14.2136874,4.7126682 C14.1221378,4.84796179 14.1144481,5.02107183 14.1937669,5.16352941 C14.2730856,5.30598699 14.4265159,5.39471469 14.5933881,5.39471469 L15.809387,5.39471469 L13.4590693,8.86830729 C13.3675197,9.00360089 13.3598301,9.17671092 13.4391488,9.3191685 C13.5184676,9.46162608 13.6718979,9.55035378 13.83877,9.55035378 L14.924892,9.55035378 L14.7965894,9.74002319 C14.6590228,9.94337463 14.7173917,10.2164281 14.9271323,10.3498426 C15.1367518,10.4832572 15.4182426,10.4265912 15.5559303,10.2232398 L16.1457348,9.35152387 C16.2372844,9.21623028 16.2449741,9.04312024 16.1656553,8.90066266 C16.0863366,8.75820508 15.9329063,8.66947738 15.7660341,8.66947738 L14.6799121,8.66947738 L17.0302298,5.19588478 C17.1217794,5.06059118 17.129469,4.88748115 17.0501503,4.74502357 C16.9708315,4.60256599 16.8174012,4.51383829 16.6505291,4.51383829 L15.4345302,4.51383829 L17.647584,1.24306863 L19.8606378,4.51383829 L18.6446995,4.51383829 C18.4778273,4.51383829 18.324397,4.60262471 18.2450783,4.74502357 C18.1657595,4.88742243 18.1734492,5.06059118 18.2649988,5.19588478 L20.6152559,8.66947738 L19.5291339,8.66947738 C19.3622617,8.66947738 19.2088314,8.7582638 19.1295127,8.90066266 C19.0501939,9.04306152 19.0578836,9.21623028 19.1494332,9.35152387 L21.7512094,13.1967628 L20.0134627,13.1967628 C19.8465905,13.1967628 19.6931602,13.2855492 19.6138415,13.4279481 C19.5345227,13.570347 19.5422124,13.7435157 19.633762,13.8788093 L22.7047299,18.4174279 L18.0912846,18.4174279 C17.8404315,18.4174279 17.6371696,18.6146137 17.6371696,18.8578368 C17.6371696,19.1010599 17.8404315,19.2982456 18.0912846,19.2982456 L23.545872,19.2982456 C23.7127441,19.2982456 23.8661744,19.2094592 23.9454932,19.0670603 C24.0248119,18.9246615 24.0170617,18.7516102 23.9255121,18.6162578 Z" id="Shape"></path>
                    <path d="M0.667172152,14.4016758 C0.744249879,14.4504425 0.83086362,14.4736842 0.916627016,14.4736842 C1.06495153,14.4736842 1.21042131,14.4039004 1.2978854,14.2754561 L4.37072958,9.76187382 C4.46256687,9.62698973 4.47028071,9.45440366 4.39071269,9.31237727 C4.31114467,9.17035088 4.15723217,9.08189174 3.98983563,9.08189174 L2.90042183,9.08189174 L5.25806489,5.61881296 C5.34990218,5.48392887 5.35761602,5.31134281 5.278048,5.16931642 C5.19847998,5.02729003 5.04456748,4.93883088 4.87717093,4.93883088 L3.6574721,4.93883088 L5.87748069,1.67796116 L8.09748928,4.93883088 L6.87766896,4.93883088 C6.71027242,4.93883088 6.55635992,5.02734857 6.4767919,5.16931642 C6.39722388,5.31128426 6.40493772,5.48392887 6.49677501,5.61881296 L8.8544788,9.08189174 L7.76494353,9.08189174 C7.51330207,9.08189174 7.30940141,9.27848062 7.30940141,9.52096755 C7.30940141,9.76345449 7.51330207,9.96004337 7.76494353,9.96004337 L9.69826429,9.96004337 C9.86566083,9.96004337 10.0195733,9.87152568 10.0991413,9.72955784 C10.1787094,9.58758999 10.1709955,9.41494538 10.0791582,9.28006129 L7.72145445,5.81698252 L8.94127476,5.81698252 C9.10867131,5.81698252 9.2625838,5.72846483 9.34215183,5.58649698 C9.42171985,5.44452914 9.414006,5.27188453 9.32216871,5.13700044 L6.25843538,0.636766043 C6.17419046,0.51306375 6.03108949,0.438596491 5.87754143,0.438596491 C5.72399336,0.438596491 5.5808924,0.51306375 5.49664748,0.636766043 L2.43291414,5.13700044 C2.34107685,5.27188453 2.33336301,5.44447059 2.41293103,5.58649698 C2.49249905,5.72852337 2.64641155,5.81698252 2.81380809,5.81698252 L4.03356767,5.81698252 L1.67592462,9.28006129 C1.58408733,9.41500392 1.57637348,9.58753145 1.65594151,9.72955784 C1.73550953,9.87158423 1.88942203,9.96004337 2.05681857,9.96004337 L3.1462931,9.96004337 L0.536340456,13.7936436 C0.398220085,13.9964381 0.456833171,14.2686065 0.667172152,14.4016758 Z" id="Shape"></path>
                    <path d="M9.24356897,13.1578947 L6.28207289,13.1578947 C4.59960183,13.1578947 3.23076923,14.5300814 3.23076923,16.2168087 C3.23076923,16.4652503 3.43162468,16.6666667 3.67950795,16.6666667 L9.24356897,16.6666667 C9.49145224,16.6666667 9.69230769,16.4652503 9.69230769,16.2168087 L9.69230769,13.6077527 C9.69230769,13.3593111 9.49139241,13.1578947 9.24356897,13.1578947 Z M8.79483024,15.7669508 L4.1752745,15.7669508 C4.3822328,14.7915388 5.24829853,14.0576106 6.28207289,14.0576106 L8.79483024,14.0576106 L8.79483024,15.7669508 Z" id="Shape"></path>
                    <path d="M14.7763931,13.1578947 L11.5312992,13.1578947 C11.2803018,13.1578947 11.0769231,13.360585 11.0769231,13.6105978 L11.0769231,20.161332 C11.0769231,20.4113448 11.2803018,20.6140351 11.5312992,20.6140351 L14.7763931,20.6140351 C15.0273905,20.6140351 15.2307692,20.4113448 15.2307692,20.161332 L15.2307692,13.6105978 C15.2307692,13.360585 15.0273299,13.1578947 14.7763931,13.1578947 Z M14.3220169,19.7086289 L11.9856754,19.7086289 L11.9856754,14.0633009 L14.3220169,14.0633009 L14.3220169,19.7086289 Z" id="Shape"></path>
                </g>
            </g>
        </g>
    </g>
</svg>