<?xml version="1.0" encoding="UTF-8"?>
<svg width="208px" height="29px" viewBox="0 0 208 29" version="1.1" xmlns="http://www.w3.org/2000/svg" xmlns:xlink="http://www.w3.org/1999/xlink">
    <!-- Generator: Sketch 52.3 (67297) - http://www.bohemiancoding.com/sketch -->
    <title>logo</title>
    <desc>Created with Sketch.</desc>
    <g id="Page-1" stroke="none" stroke-width="1" fill="none" fill-rule="evenodd">
        <g id="Desktop-HD" transform="translate(-88.000000, -101.000000)">
            <g id="logo" transform="translate(88.000000, 101.000000)">
                <path d="M57.0095125,24 C54.1105826,24 51.7175981,23.0358127 49.8305589,21.107438 C47.9435196,19.1790634 47,16.8099174 47,14 C47,11.1900826 47.9435196,8.82093664 49.8305589,6.89256198 C51.7175981,4.96418733 54.1105826,4 57.0095125,4 C58.7598098,4 60.3688068,4.42240574 61.8365042,5.26721763 C63.3042015,6.11202952 64.4482759,7.25068871 65.2687277,8.68319559 L63.0535077,9.97796143 C62.5065398,8.91276386 61.6906462,8.06336088 60.6058264,7.42975207 C59.5210066,6.79614325 58.3222354,6.47933884 57.0095125,6.47933884 C54.8034085,6.47933884 53.0029727,7.19559229 51.6082045,8.62809917 C50.2134364,10.0606061 49.5160523,11.8512397 49.5160523,14 C49.5160523,16.1303947 50.2134364,17.9118457 51.6082045,19.3443526 C53.0029727,20.7768595 54.8034085,21.4931129 57.0095125,21.4931129 C58.3222354,21.4931129 59.5210066,21.1763085 60.6058264,20.5426997 C61.6906462,19.9090909 62.5065398,19.0688705 63.0535077,18.0220386 L65.2687277,19.2892562 C64.4665083,20.7217631 63.3269917,21.8650138 61.8501784,22.7190083 C60.373365,23.5730028 58.7598098,24 57.0095125,24 Z M79.2582916,19.3168044 L74.9500595,7.41597796 L69.0785206,23.6418733 L66.3900119,23.6418733 L73.5279429,4.35812672 L76.3995244,4.35812672 L83.5374554,23.6418733 L80.8299643,23.6418733 L79.2711058,19.3168044 L79.2582916,19.3168044 Z M97.156956,23.6418733 L92.863258,16.2589532 L88.3507729,16.2589532 L88.3507729,23.6418733 L85.8073722,23.6418733 L85.8073722,4.35812672 L93.4649227,4.35812672 C95.1058264,4.35812672 96.5097105,4.94123063 97.6765755,6.10743802 C98.8434405,7.27364541 99.4268728,8.68319559 99.4268728,10.3360882 C99.4268728,11.5849402 99.0576694,12.7235998 98.3192628,13.7520661 C97.5808561,14.7805325 96.6282205,15.5059689 95.4613555,15.9283747 L99.9738407,23.6418733 L97.156956,23.6418733 Z M88.3507729,6.75482094 L88.3507729,13.9449036 L93.4649227,13.9449036 C94.4130005,13.9449036 95.2197782,13.5913684 95.8852556,12.8842975 C96.5507331,12.1772267 96.8834721,11.3278237 96.8834721,10.3360882 C96.8834721,9.34435262 96.5507331,8.49954072 95.8852556,7.80165289 C95.2197782,7.10376506 94.4130005,6.75482094 93.4649227,6.75482094 L88.3507729,6.75482094 Z M109.983353,4.35812672 C112.590567,4.35812672 114.755648,5.29017433 116.478597,7.15426997 C118.201546,9.01836561 119.06302,11.3002755 119.06302,14 C119.06302,16.6997245 118.201546,18.9816344 116.478597,20.84573 C114.755648,22.7098257 112.590567,23.6418733 109.983353,23.6418733 L102.517241,23.6418733 L102.517241,4.35812672 L109.983353,4.35812672 Z M109.983353,21.2176309 C111.934205,21.2176309 113.529528,20.5289256 114.769322,19.1515152 C116.009116,17.7741047 116.629013,16.0569331 116.629013,14 C116.629013,11.9430669 116.009116,10.2258953 114.769322,8.84848485 C113.529528,7.47107438 111.934205,6.78236915 109.983353,6.78236915 L105.060642,6.78236915 L105.060642,21.2176309 L109.983353,21.2176309 Z M136.237812,4.35812672 C138.88149,4.35812672 141.092152,5.28099174 142.869798,7.12672176 C144.647444,8.97245179 145.536266,11.2635447 145.536266,14 C145.536266,16.7364553 144.647444,19.0275482 142.869798,20.8732782 C141.092152,22.7190083 138.88149,23.6418733 136.237812,23.6418733 L128.306778,23.6418733 L128.306778,4.35812672 L136.237812,4.35812672 Z M136.237812,18.2975207 C137.34998,18.2975207 138.266152,17.8980716 138.986326,17.0991736 C139.7065,16.3002755 140.066587,15.2672176 140.066587,14 C140.066587,12.7327824 139.7065,11.6997245 138.986326,10.9008264 C138.266152,10.1019284 137.34998,9.70247934 136.237812,9.70247934 L134.049941,9.70247934 L134.049941,18.2975207 L136.237812,18.2975207 Z M147.587396,4.35812672 L153.057075,4.35812672 L153.057075,23.6418733 L147.587396,23.6418733 L147.587396,4.35812672 Z M166.20465,21.1625344 L163.449465,10.8319559 L160.702305,21.1625344 L160.687277,21.1625344 L160.030916,23.6418733 L154.151011,23.6418733 L160.249703,4.35812672 L166.649227,4.35812672 L172.747919,23.6418733 L166.868014,23.6418733 L166.211653,21.1625344 L166.20465,21.1625344 Z M183.714625,23.6143251 L180.678954,17.553719 L179.311534,17.553719 L179.311534,23.6143251 L173.841855,23.6143251 L173.841855,4.33057851 L181.499405,4.33057851 C183.596116,4.33057851 185.328181,4.95041322 186.6956,6.19008264 C188.06302,7.42975207 188.74673,9.06887052 188.74673,11.107438 C188.74673,12.2460972 188.48692,13.274564 187.967301,14.1928375 C187.447681,15.111111 186.722949,15.8549126 185.793103,16.4242424 L189.567182,23.6143251 L183.714625,23.6143251 Z M179.311534,9.39944904 L179.311534,12.9807163 L181.390012,12.9807163 C181.973444,12.9990819 182.433809,12.8521578 182.771106,12.5399449 C183.108403,12.227732 183.277051,11.7869607 183.277051,11.2176309 C183.277051,10.6483011 183.108403,10.2029386 182.771106,9.8815427 C182.433809,9.56014678 181.973444,9.39944904 181.390012,9.39944904 L179.311534,9.39944904 Z M208,4.35812672 L201.51843,16.3140496 L201.51843,23.6418733 L196.048751,23.6418733 L196.048751,16.3140496 L189.567182,4.35812672 L195.638526,4.35812672 L198.783591,11.1349862 L201.928656,4.35812672 L208,4.35812672 Z" id="CARD-DIARY" fill="#4A4A4A"></path>
                <path d="M10,0 L10,3 L21,3 L21,0.0509079376 C21.7850299,0.190261289 22.5007153,0.610249273 23.0065474,1.24328979 C23.6496737,2.04815196 24,3.04778122 24,4.07803101 L24,24.7473248 C24,25.8775975 23.5484237,26.9610248 22.7456778,27.7567102 C21.9421681,28.5531527 20.856608,29 19.72526,29 L4.27474002,29 C3.14339195,29 2.05783194,28.5531527 1.25432221,27.7567102 C0.451576268,26.9610248 -4.30247362e-15,25.8775975 -4.4408921e-15,24.7473248 L0,4.25267519 C-1.38418478e-16,3.12240255 0.451576268,2.03897516 1.25432221,1.24328979 C2.05783194,0.446847345 3.14339195,8.20143105e-15 4.27474002,7.99360578e-15 L10,6.17447436e-15 Z M3,5.03993811 L3,23.9905997 C3,24.5228478 3.21070177,25.0334526 3.58605242,25.4108117 C3.9611875,25.7879541 4.47118611,26 5.00312849,26 L19.0327024,26 C19.5561765,26 20.0578146,25.7902069 20.4254325,25.4175379 C20.7935908,25.0443211 21,24.5411569 21,24.0169133 L21,3 L5.00992266,3 C4.47359055,3 3.95998053,3.21656082 3.58556485,3.60057258 C3.21012786,3.98563183 3,4.50214302 3,5.03993811 Z M12,9 L12,0 L19,0 L19,8.98759968 L15.6511752,7.12319035 L12,9 Z" id="new-card-diary-icon" fill="#5BC3FC" fill-rule="nonzero"></path>
            </g>
        </g>
    </g>
</svg>